<svg id="visual" viewBox="0 0 960 540" width="960" height="540" xmlns="http://www.w3.org/2000/svg" xmlns:xlink="http://www.w3.org/1999/xlink" version="1.1"><path d="M0 50L16 50.8C32 51.7 64 53.3 96 55C128 56.7 160 58.3 192 61C224 63.7 256 67.3 288 67.3C320 67.3 352 63.7 384 57.3C416 51 448 42 480 39.3C512 36.7 544 40.3 576 46.7C608 53 640 62 672 64.7C704 67.3 736 63.7 768 59.2C800 54.7 832 49.3 864 45.8C896 42.3 928 40.7 944 39.8L960 39L960 0L944 0C928 0 896 0 864 0C832 0 800 0 768 0C736 0 704 0 672 0C640 0 608 0 576 0C544 0 512 0 480 0C448 0 416 0 384 0C352 0 320 0 288 0C256 0 224 0 192 0C160 0 128 0 96 0C64 0 32 0 16 0L0 0Z" fill="#2f2f2f"></path><path d="M0 206L16 216.8C32 227.7 64 249.3 96 249.3C128 249.3 160 227.7 192 213.3C224 199 256 192 288 186.7C320 181.3 352 177.7 384 166.8C416 156 448 138 480 139.8C512 141.7 544 163.3 576 172.3C608 181.3 640 177.7 672 185.7C704 193.7 736 213.3 768 216C800 218.7 832 204.3 864 199.8C896 195.3 928 200.7 944 203.3L960 206L960 37L944 37.8C928 38.7 896 40.3 864 43.8C832 47.3 800 52.7 768 57.2C736 61.7 704 65.3 672 62.7C640 60 608 51 576 44.7C544 38.3 512 34.7 480 37.3C448 40 416 49 384 55.3C352 61.7 320 65.3 288 65.3C256 65.3 224 61.7 192 59C160 56.3 128 54.7 96 53C64 51.3 32 49.7 16 48.8L0 48Z" fill="#363636"></path><path d="M0 320L16 320.8C32 321.7 64 323.3 96 320.5C128 317.7 160 310.3 192 303.2C224 296 256 289 288 275.5C320 262 352 242 384 233.8C416 225.7 448 229.3 480 242C512 254.7 544 276.3 576 276.3C608 276.3 640 254.7 672 255.5C704 256.3 736 279.7 768 289.7C800 299.7 832 296.3 864 291.8C896 287.3 928 281.7 944 278.8L960 276L960 204L944 201.3C928 198.7 896 193.3 864 197.8C832 202.3 800 216.7 768 214C736 211.3 704 191.7 672 183.7C640 175.7 608 179.3 576 170.3C544 161.3 512 139.7 480 137.8C448 136 416 154 384 164.8C352 175.7 320 179.3 288 184.7C256 190 224 197 192 211.3C160 225.7 128 247.3 96 247.3C64 247.3 32 225.7 16 214.8L0 204Z" fill="#3d3d3d"></path><path d="M0 417L16 417.8C32 418.7 64 420.3 96 418.5C128 416.7 160 411.3 192 415C224 418.7 256 431.3 288 427.7C320 424 352 404 384 397.7C416 391.3 448 398.7 480 402.3C512 406 544 406 576 409.7C608 413.3 640 420.7 672 421.5C704 422.3 736 416.7 768 408.5C800 400.3 832 389.7 864 391.5C896 393.3 928 407.7 944 414.8L960 422L960 274L944 276.8C928 279.7 896 285.3 864 289.8C832 294.3 800 297.7 768 287.7C736 277.7 704 254.3 672 253.5C640 252.7 608 274.3 576 274.3C544 274.3 512 252.7 480 240C448 227.3 416 223.7 384 231.8C352 240 320 260 288 273.5C256 287 224 294 192 301.2C160 308.3 128 315.7 96 318.5C64 321.3 32 319.7 16 318.8L0 318Z" fill="#474747"></path><path d="M0 460L16 466.3C32 472.7 64 485.3 96 486.2C128 487 160 476 192 476.8C224 477.7 256 490.3 288 488.7C320 487 352 471 384 464.7C416 458.3 448 461.7 480 460.7C512 459.7 544 454.3 576 457.2C608 460 640 471 672 477.3C704 483.7 736 485.3 768 481.7C800 478 832 469 864 469C896 469 928 478 944 482.5L960 487L960 420L944 412.8C928 405.7 896 391.3 864 389.5C832 387.7 800 398.3 768 406.5C736 414.7 704 420.3 672 419.5C640 418.7 608 411.3 576 407.7C544 404 512 404 480 400.3C448 396.7 416 389.3 384 395.7C352 402 320 422 288 425.7C256 429.3 224 416.7 192 413C160 409.3 128 414.7 96 416.5C64 418.3 32 416.7 16 415.8L0 415Z" fill="#555555"></path><path d="M0 541L16 541C32 541 64 541 96 541C128 541 160 541 192 541C224 541 256 541 288 541C320 541 352 541 384 541C416 541 448 541 480 541C512 541 544 541 576 541C608 541 640 541 672 541C704 541 736 541 768 541C800 541 832 541 864 541C896 541 928 541 944 541L960 541L960 485L944 480.5C928 476 896 467 864 467C832 467 800 476 768 479.7C736 483.3 704 481.7 672 475.3C640 469 608 458 576 455.2C544 452.3 512 457.7 480 458.7C448 459.7 416 456.3 384 462.7C352 469 320 485 288 486.7C256 488.3 224 475.7 192 474.8C160 474 128 485 96 484.2C64 483.3 32 470.7 16 464.3L0 458Z" fill="#646464"></path></svg>